HIERARCHY
ROOT Hips
{
	OFFSET -3.958830 18.904000 13.208200
	CHANNELS 6 Xposition Yposition Zposition Zrotation Yrotation Xrotation 
	JOINT LHipJoint
	{
		OFFSET 0.000000 0.000000 0.000000
		CHANNELS 3 Zrotation Yrotation Xrotation
		JOINT LeftUpLeg
		{
			OFFSET 1.800000 -1.400000 0.085000
			CHANNELS 3 Zrotation Yrotation Xrotation
			JOINT LeftLeg
			{
				OFFSET 2.215000 -6.000000 0.000000
				CHANNELS 3 Zrotation Yrotation Xrotation
				JOINT LeftFoot
				{
					OFFSET 2.500000 -6.900000 0.000000
					CHANNELS 3 Zrotation Yrotation Xrotation
					JOINT LeftToeBase
					{
						OFFSET 0.200000 -0.500000 1.950000
						CHANNELS 3 Zrotation Yrotation Xrotation
						End Site
						{
							OFFSET 0.000000 0.000000 0.000000
						}
					}
				}
			}
		}
	}
	JOINT RHipJoint
	{
		OFFSET 0.000000 0.000000 0.000000
		CHANNELS 3 Zrotation Yrotation Xrotation
		JOINT RightUpLeg
		{
			OFFSET -1.800000 -1.400000 0.085000
			CHANNELS 3 Zrotation Yrotation Xrotation
			JOINT RightLeg
			{
				OFFSET -2.215000 -6.000000 0.000000
				CHANNELS 3 Zrotation Yrotation Xrotation
				JOINT RightFoot
				{
					OFFSET -2.500000 -6.900000 0.000000
					CHANNELS 3 Zrotation Yrotation Xrotation
					JOINT RightToeBase
					{
						OFFSET -0.200000 -0.500000 1.950000
						CHANNELS 3 Zrotation Yrotation Xrotation
						End Site
						{
							OFFSET 0.000000 0.000000 0.000000
						}
					}
				}
			}
		}
	}
	JOINT LowerBack
	{
		OFFSET 0.000000 0.000000 0.000000
		CHANNELS 3 Zrotation Yrotation Xrotation
		JOINT Spine
		{
			OFFSET -0.087000 1.940000 -0.288900
			CHANNELS 3 Zrotation Yrotation Xrotation
			JOINT Spine1
			{
				OFFSET 0.000000 1.950000 0.060000
				CHANNELS 3 Zrotation Yrotation Xrotation
				JOINT Neck
				{
					OFFSET 0.000000 0.000000 0.000000
					CHANNELS 3 Zrotation Yrotation Xrotation
					JOINT Neck1
					{
						OFFSET 0.000000 1.600000 0.340000
						CHANNELS 3 Zrotation Yrotation Xrotation
						JOINT Head
						{
							OFFSET 0.000000 1.667000 -0.240000
							CHANNELS 3 Zrotation Yrotation Xrotation
							End Site
							{
								OFFSET 0.000000 0.000000 0.000000
							}
						}
					}
				}
				JOINT LeftShoulder
				{
					OFFSET 0.000000 0.000000 0.000000
					CHANNELS 3 Zrotation Yrotation Xrotation
					JOINT LeftArm
					{
						OFFSET 2.700000 1.550000 -0.730000
						CHANNELS 3 Zrotation Yrotation Xrotation
						JOINT LeftForeArm
						{
							OFFSET 5.450000 0.000000 0.000000
							CHANNELS 3 Zrotation Yrotation Xrotation
							JOINT LeftHand
							{
								OFFSET 3.450000 0.000000 0.000000
								CHANNELS 3 Zrotation Yrotation Xrotation
								JOINT LeftHandIndex1
								{
									OFFSET 0.750000 0.000000 0.000000
									CHANNELS 3 Zrotation Yrotation Xrotation
									End Site
									{
										OFFSET 0.000000 0.000000 0.000000
									}
								}
							}
						}
					}
				}
				JOINT RightShoulder
				{
					OFFSET 0.000000 0.000000 0.000000
					CHANNELS 3 Zrotation Yrotation Xrotation
					JOINT RightArm
					{
						OFFSET -2.700000 1.550000 -0.730000
						CHANNELS 3 Zrotation Yrotation Xrotation
						JOINT RightForeArm
						{
							OFFSET -5.450000 0.000000 0.000000
							CHANNELS 3 Zrotation Yrotation Xrotation
							JOINT RightHand
							{
								OFFSET -3.450000 0.000000 0.000000
								CHANNELS 3 Zrotation Yrotation Xrotation
								JOINT RightHandIndex1
								{
									OFFSET -0.750000 0.000000 0.000000
									CHANNELS 3 Zrotation Yrotation Xrotation
									End Site
									{
										OFFSET 0.000000 0.000000 0.000000
									}
								}
							}
						}
					}
				}
			}
		}
	}
}
MOTION
Frames: 11
Frame Time: 0.016667
-0.132730 17.297760 -2.293190 -8.925474 1.860603 6.811664 -14.840407 11.948679 1.929165 5.432132 -0.124587 -1.090688 -4.706281 5.227077 9.492790 -0.536392 5.280978 3.484646 0.448740 0.068240 -0.109150 18.884016 -10.296058 4.190790 3.856112 8.304494 -33.169004 11.085360 -0.993444 -4.159584 0.576535 -2.795203 3.799962 0.508690 1.572690 0.544810 -5.100449 1.110590 -7.316373 17.576371 -1.249591 2.593851 -3.915425 -2.695057 12.796289 1.116601 0.382168 -3.798040 0.981832 2.468568 28.176591 -2.227950 -2.820130 10.745880 18.985836 -30.284857 -2.357623 -2.959001 -48.705438 9.794682 25.477832 -23.159175 -5.966373 -4.812587 3.490625 -0.567040 1.303180 -1.086890 0.621540 -19.554337 28.141141 -7.835506 11.993832 55.263121 21.949755 -17.459417 8.768785 -4.659016 1.860915 -2.292284 -0.337490 0.375990 0.086530 0.128370 
-0.075970 17.270110 -2.288460 -8.873067 0.879241 4.064727 -14.883104 12.109849 2.145452 5.690065 0.368530 3.095329 -5.208116 5.570624 8.702783 -0.425497 5.587229 3.335093 0.495260 0.060390 0.021540 18.816442 -10.439757 3.963679 4.781437 7.889846 -32.176751 9.526143 -2.223800 3.478930 0.527336 -2.625216 3.790989 0.450060 1.383070 0.553190 -4.917260 0.920106 -7.282742 16.171173 -1.344545 4.537047 -2.232726 -2.832279 15.657177 1.814551 0.245184 -5.434375 0.826314 2.108138 29.680889 -2.729960 -2.474810 9.135940 16.852341 -35.297229 -1.552922 4.696545 -45.344926 4.297635 23.481811 -21.737587 -5.045449 -4.752357 3.504000 -0.396840 1.159040 -0.943980 0.568880 -18.488588 33.919111 -6.967631 0.970588 54.473807 9.882726 -12.448757 3.099328 -3.183878 1.923669 -2.376675 -0.308750 0.308730 0.049300 0.052870 
0.001750 17.214920 -2.278870 -9.519126 1.662318 3.198672 -14.910004 12.201672 2.245844 6.383929 0.333552 4.354405 -5.753790 5.691476 8.018980 -0.419592 5.684452 3.269973 0.645650 0.222380 0.159460 18.785306 -10.354749 3.953395 4.842174 8.611164 -33.820437 8.901948 -3.302574 12.176784 0.415117 -2.811785 3.652282 0.537950 1.256140 0.543550 -4.824177 0.617614 -7.294889 16.898080 -2.368108 5.536166 -2.184418 -3.794228 16.501300 2.178637 0.676017 -5.929224 1.348543 2.003797 28.989313 -2.589810 -2.275510 6.740600 15.287085 -36.082462 -1.766654 7.070340 -44.992287 2.644428 21.794318 -22.082515 -4.595115 -4.654474 3.528854 -0.313920 1.065360 -0.835420 0.592220 -17.709392 34.427258 -5.665752 -3.918522 52.256666 5.922930 -12.782805 8.838261 -3.362297 1.860947 -2.394577 -0.281830 0.311550 -0.046420 0.020810 
0.069240 17.149670 -2.267180 -9.020907 2.855306 2.888279 -14.998561 12.280370 2.293724 5.906044 0.393161 4.638717 -5.913469 5.708198 8.006570 -0.476909 5.675527 3.221586 0.828180 0.430220 0.346660 18.716210 -10.126396 4.041895 3.070850 9.431904 -36.669417 9.646777 -4.835688 21.193003 0.191066 -3.590150 3.286302 0.664440 1.122650 0.551270 -4.598754 0.156451 -7.323622 15.463943 -3.359589 6.209364 -1.441457 -4.753259 16.171490 2.647176 1.186587 -5.259810 2.114792 2.314387 28.733695 -3.436740 -1.118200 4.149590 13.564092 -34.708326 -1.916046 5.069858 -46.258987 3.457949 22.413515 -23.918044 -5.065728 -4.559553 3.505999 -0.249020 1.006030 -0.721300 0.602670 -16.661565 32.828052 -5.451469 -2.133323 52.212278 7.443544 -14.889019 12.859129 -4.031926 1.799716 -2.390820 -0.249420 0.312850 -0.152160 -0.029480 
0.132620 17.084280 -2.260680 -8.189013 3.559990 2.547556 -15.066963 12.315969 2.239591 4.292235 0.644268 4.301066 -4.817330 5.615544 9.629739 -0.575779 5.642773 3.200873 0.876130 0.472760 0.393430 18.670955 -9.977534 4.190898 0.470516 10.021844 -39.121647 11.328442 -6.761998 28.469627 -0.014486 -4.802335 2.803284 0.722840 1.113060 0.597250 -4.443730 -0.072351 -7.350333 13.807823 -3.691288 6.810327 -0.898951 -5.078761 16.065232 3.287041 1.554577 -4.582228 2.852456 2.823476 28.479599 -4.462350 -0.080010 4.021920 12.624556 -33.377420 -1.859082 1.975216 -46.879056 4.902783 23.652656 -27.577756 -5.958909 -4.569652 3.513852 -0.254540 1.051730 -0.728160 0.591720 -16.560179 31.395553 -5.947071 2.251635 52.396986 11.040515 -15.907568 13.907147 -4.428168 1.739988 -2.406581 -0.253020 0.278950 -0.153140 -0.065240 
0.200530 17.044690 -2.243130 -6.658819 1.478242 1.871328 -15.111391 12.336351 2.225549 0.783470 1.304918 3.826604 -2.716496 5.534298 13.418127 -0.504126 5.546095 3.220295 0.887260 0.512910 0.406030 18.636402 -9.961452 4.288835 -1.381976 10.342148 -39.662480 12.643070 -8.112421 32.867304 -0.195266 -5.679699 2.499842 0.710290 1.105480 0.623900 -4.328080 -0.115738 -7.384363 11.773944 -2.574213 7.799080 0.285336 -3.997056 16.085565 3.416126 1.777886 -3.950360 3.383854 3.037313 30.142052 -4.754260 0.723920 4.426880 13.264498 -31.257519 -1.796784 -5.430653 -48.266677 8.387101 26.811757 -31.151812 -7.761612 -4.491912 3.449620 -0.296730 1.062610 -0.694270 0.606860 -17.142927 29.747607 -6.349926 10.317963 52.793681 16.787522 -19.552814 14.123538 -5.539642 1.777859 -2.339253 -0.197800 0.256920 -0.184690 -0.035270 
0.294380 17.048170 -2.234040 -5.715347 0.675036 0.210256 -15.122203 12.506811 2.263827 -2.522783 1.384849 2.251935 1.141531 5.074528 19.801831 -0.451580 5.656546 3.152324 0.854270 0.465620 0.395810 18.584774 -10.049560 4.213512 -3.407248 9.437495 -38.018971 15.544211 -9.820559 34.154476 -0.329152 -6.354495 2.276162 0.659330 1.089380 0.630650 -4.233686 -0.364061 -7.410720 11.125636 -2.810805 10.198689 0.500971 -4.189411 17.561812 3.581420 1.764390 -3.940636 3.463507 3.436608 32.125776 -4.806950 1.405150 5.018550 13.085167 -28.756637 -0.760567 -12.205831 -47.297402 9.158753 32.876886 -37.622837 -11.825099 -4.379260 3.350834 -0.279250 1.050570 -0.682020 0.593500 -17.018526 27.593475 -5.773178 16.200883 53.084307 18.831815 -25.296997 15.456117 -7.577573 1.749453 -2.284186 -0.188540 0.229670 -0.174980 -0.041960 
0.391790 17.058780 -2.221710 -3.858649 0.370501 -0.878690 -15.232457 12.705790 2.527633 -7.136421 0.343324 -1.893273 4.883429 4.373985 29.109239 -0.264182 6.235521 2.922621 0.760650 0.343120 0.359910 18.434656 -9.968703 3.993789 -6.273512 7.531579 -35.798544 18.810092 -11.104392 32.383244 -0.361504 -6.576708 2.227966 0.549450 1.077000 0.595860 -3.839330 -1.128598 -7.480511 8.477213 -3.113777 12.836320 1.950534 -4.382548 19.449113 2.925638 1.793026 -5.064808 3.177884 3.474282 34.178223 -4.530360 1.759390 5.833480 11.942438 -26.650422 0.982521 -19.893767 -45.723143 8.501301 41.468301 -43.594940 -18.334001 -4.259608 3.152023 -0.234530 1.010070 -0.675410 0.560630 -14.747308 26.349392 -3.627299 18.417699 51.394991 14.361201 -31.690955 20.755599 -10.538559 1.642814 -2.223008 -0.203500 0.230760 -0.140350 -0.052370 
0.496140 17.055780 -2.223450 -3.362221 -2.787928 -1.459559 -15.265571 12.602730 2.910425 -9.820559 -2.245214 -7.913737 5.188847 4.989971 40.432174 0.019902 7.518649 2.385412 0.840090 0.436870 0.510360 18.391099 -9.869702 3.833446 -6.068672 6.996672 -33.769882 19.901345 -11.235411 30.869376 -0.438302 -6.370315 2.282875 0.559550 0.902620 0.550530 -3.692721 -1.416119 -7.686704 8.155720 -3.213107 16.511069 2.731037 -4.142191 20.756278 2.734218 0.826549 -5.813420 1.630822 4.486150 35.090821 -5.506850 3.348340 3.135240 9.876059 -22.997438 3.143128 -28.141890 -42.565259 6.558166 52.893810 -52.147932 -29.074580 -4.029199 2.802187 -0.117660 0.884990 -0.535960 0.519730 -12.470954 24.146311 -2.934253 21.798337 50.430391 10.584124 -37.720331 28.223481 -14.441406 1.505588 -2.067891 -0.178460 0.237910 -0.206310 -0.112660 
0.600180 17.020820 -2.247530 -3.118885 -7.752319 -1.382499 -15.342358 12.242457 3.540895 -9.933481 -6.146470 -16.539247 1.180946 8.763225 52.917059 0.512186 9.735959 1.513842 0.926850 0.520470 0.674700 18.348479 -9.564298 3.700196 -4.947120 7.331087 -32.974751 19.863240 -10.849196 29.698943 -0.517045 -5.987736 2.373197 0.530500 0.669410 0.585880 -3.492355 -1.645573 -8.080441 7.686026 -2.757923 21.081771 2.872894 -3.039556 20.481168 3.203060 -0.258496 -6.371730 0.043248 6.083593 36.091362 -7.638400 6.081410 -0.656210 4.537828 -19.201058 4.502965 -33.516962 -37.541543 3.907714 66.715565 -62.148171 -44.161521 -3.836254 2.209137 0.042670 0.747600 -0.338560 0.454010 -8.396145 22.145964 -2.509609 24.848661 48.808418 6.354004 -42.059293 39.932699 -18.889116 1.323563 -1.763486 -0.100430 0.159230 -0.256800 -0.189780 
0.693320 16.892330 -2.267890 -3.143001 -13.764638 0.820996 -15.466062 11.441058 4.471498 -5.537711 -10.306109 -28.584886 -8.295040 17.743375 62.736572 1.368926 12.822708 0.508019 0.975450 0.577260 0.745510 18.335397 -8.940534 3.682229 -3.222129 8.807456 -34.727092 19.586197 -10.554688 30.034802 -0.590609 -5.721384 2.454397 0.465010 0.465560 0.584080 -3.347720 -1.701998 -8.666469 6.938807 -1.753769 23.980752 3.238016 -1.237101 18.655310 3.093928 -1.149975 -7.582604 -1.414148 7.531612 37.353035 -8.369560 8.429050 -2.304760 0.881332 -14.218656 5.550409 -42.720703 -32.989667 4.191012 81.375553 -66.321153 -59.803688 -3.703483 1.663164 0.130820 0.597430 -0.190400 0.437950 -5.221725 18.658850 -1.325352 30.992996 46.137234 2.951318 -45.620649 52.318664 -24.267390 1.189065 -1.437380 -0.003010 0.042340 -0.336600 -0.207180 
